<mxfile host="app.diagrams.net" modified="2020-10-19T02:08:19.456Z" agent="5.0 (Windows NT 10.0; WOW64) AppleWebKit/537.36 (KHTML, like Gecko) Chrome/76.0.3809.87 Safari/537.36" etag="pOz8V0o23T-yxnVXRtV-" version="13.7.3" type="github">
  <diagram id="tISTSOa1IbnUW52Cragt" name="第 1 页">
    <mxGraphModel dx="4024" dy="3736" grid="1" gridSize="10" guides="1" tooltips="1" connect="1" arrows="1" fold="1" page="1" pageScale="1" pageWidth="827" pageHeight="1169" math="0" shadow="0">
      <root>
        <mxCell id="0" />
        <mxCell id="1" parent="0" />
        <mxCell id="TtaqyDXrP9r9ZkSE2HPn-74" style="edgeStyle=orthogonalEdgeStyle;rounded=0;orthogonalLoop=1;jettySize=auto;html=1;fontSize=19;" parent="1" source="TtaqyDXrP9r9ZkSE2HPn-1" target="TtaqyDXrP9r9ZkSE2HPn-73" edge="1">
          <mxGeometry relative="1" as="geometry" />
        </mxCell>
        <mxCell id="TtaqyDXrP9r9ZkSE2HPn-1" value="&lt;span style=&quot;color: rgb(50, 50, 50); font-size: 16px; background-color: rgba(255, 255, 255, 0.01);&quot;&gt;EventLoopGroup (Parent)&lt;/span&gt;" style="rounded=0;whiteSpace=wrap;html=1;fontSize=16;" parent="1" vertex="1">
          <mxGeometry x="120" y="20" width="158" height="71" as="geometry" />
        </mxCell>
        <mxCell id="TtaqyDXrP9r9ZkSE2HPn-70" style="edgeStyle=orthogonalEdgeStyle;rounded=0;orthogonalLoop=1;jettySize=auto;html=1;fontSize=19;" parent="1" source="TtaqyDXrP9r9ZkSE2HPn-3" target="TtaqyDXrP9r9ZkSE2HPn-9" edge="1">
          <mxGeometry relative="1" as="geometry" />
        </mxCell>
        <mxCell id="TtaqyDXrP9r9ZkSE2HPn-71" style="edgeStyle=orthogonalEdgeStyle;rounded=0;orthogonalLoop=1;jettySize=auto;html=1;fontSize=19;" parent="1" source="TtaqyDXrP9r9ZkSE2HPn-3" target="TtaqyDXrP9r9ZkSE2HPn-1" edge="1">
          <mxGeometry relative="1" as="geometry">
            <mxPoint x="199" y="100" as="targetPoint" />
          </mxGeometry>
        </mxCell>
        <mxCell id="TtaqyDXrP9r9ZkSE2HPn-72" style="edgeStyle=orthogonalEdgeStyle;rounded=0;orthogonalLoop=1;jettySize=auto;html=1;fontSize=19;" parent="1" source="TtaqyDXrP9r9ZkSE2HPn-3" target="TtaqyDXrP9r9ZkSE2HPn-40" edge="1">
          <mxGeometry relative="1" as="geometry">
            <Array as="points">
              <mxPoint x="199" y="120" />
              <mxPoint x="584" y="120" />
            </Array>
          </mxGeometry>
        </mxCell>
        <mxCell id="TtaqyDXrP9r9ZkSE2HPn-3" value="&lt;span style=&quot;color: rgb(50, 50, 50); font-size: 16px; background-color: rgba(255, 255, 255, 0.01);&quot;&gt;ServerBootstrap 服务主类&lt;/span&gt;" style="rounded=0;whiteSpace=wrap;html=1;fontSize=16;" parent="1" vertex="1">
          <mxGeometry x="120" y="170" width="158" height="71" as="geometry" />
        </mxCell>
        <mxCell id="TtaqyDXrP9r9ZkSE2HPn-4" value="&lt;span style=&quot;color: rgb(50, 50, 50); font-size: 16px; background-color: rgba(255, 255, 255, 0.01);&quot;&gt;AbstractBootstrap&amp;nbsp;&lt;/span&gt;" style="rounded=0;whiteSpace=wrap;html=1;fontSize=16;" parent="1" vertex="1">
          <mxGeometry x="526" y="170" width="159" height="71" as="geometry" />
        </mxCell>
        <mxCell id="TtaqyDXrP9r9ZkSE2HPn-15" style="edgeStyle=orthogonalEdgeStyle;rounded=0;orthogonalLoop=1;jettySize=auto;html=1;entryX=0.5;entryY=1;entryDx=0;entryDy=0;fontSize=16;" parent="1" source="TtaqyDXrP9r9ZkSE2HPn-6" target="TtaqyDXrP9r9ZkSE2HPn-4" edge="1">
          <mxGeometry relative="1" as="geometry" />
        </mxCell>
        <mxCell id="TtaqyDXrP9r9ZkSE2HPn-16" value="&lt;font style=&quot;font-size: 16px;&quot;&gt;parentloopGroup&lt;/font&gt;" style="edgeLabel;html=1;align=center;verticalAlign=middle;resizable=0;points=[];fontSize=16;" parent="TtaqyDXrP9r9ZkSE2HPn-15" vertex="1" connectable="0">
          <mxGeometry x="-0.1117" y="4" relative="1" as="geometry">
            <mxPoint as="offset" />
          </mxGeometry>
        </mxCell>
        <mxCell id="TtaqyDXrP9r9ZkSE2HPn-6" value="&lt;span style=&quot;color: rgb(50, 50, 50); font-size: 16px; background-color: rgba(255, 255, 255, 0.01);&quot;&gt;group 方法将 loopGroup放入&lt;/span&gt;" style="rounded=0;whiteSpace=wrap;html=1;fontSize=16;" parent="1" vertex="1">
          <mxGeometry x="120" y="290" width="158" height="71" as="geometry" />
        </mxCell>
        <mxCell id="TtaqyDXrP9r9ZkSE2HPn-17" style="edgeStyle=orthogonalEdgeStyle;rounded=0;orthogonalLoop=1;jettySize=auto;html=1;entryX=0;entryY=0.5;entryDx=0;entryDy=0;fontSize=16;" parent="1" source="TtaqyDXrP9r9ZkSE2HPn-7" target="TtaqyDXrP9r9ZkSE2HPn-13" edge="1">
          <mxGeometry relative="1" as="geometry" />
        </mxCell>
        <mxCell id="TtaqyDXrP9r9ZkSE2HPn-18" value="NioServerSocketChannel" style="edgeLabel;html=1;align=center;verticalAlign=middle;resizable=0;points=[];fontSize=16;" parent="TtaqyDXrP9r9ZkSE2HPn-17" vertex="1" connectable="0">
          <mxGeometry x="-0.1984" y="1" relative="1" as="geometry">
            <mxPoint as="offset" />
          </mxGeometry>
        </mxCell>
        <mxCell id="TtaqyDXrP9r9ZkSE2HPn-7" value="&lt;span style=&quot;color: rgb(50, 50, 50); font-size: 16px; background-color: rgba(255, 255, 255, 0.01);&quot;&gt;channel 方法定义是什么channel类&lt;/span&gt;" style="rounded=0;whiteSpace=wrap;html=1;fontSize=16;" parent="1" vertex="1">
          <mxGeometry x="120" y="420" width="158" height="71" as="geometry" />
        </mxCell>
        <mxCell id="TtaqyDXrP9r9ZkSE2HPn-20" value="" style="edgeStyle=orthogonalEdgeStyle;rounded=0;orthogonalLoop=1;jettySize=auto;html=1;fontSize=16;entryX=0;entryY=0.5;entryDx=0;entryDy=0;" parent="1" source="TtaqyDXrP9r9ZkSE2HPn-8" target="TtaqyDXrP9r9ZkSE2HPn-12" edge="1">
          <mxGeometry relative="1" as="geometry">
            <mxPoint x="320" y="584.4999999999998" as="targetPoint" />
          </mxGeometry>
        </mxCell>
        <mxCell id="TtaqyDXrP9r9ZkSE2HPn-8" value="&lt;span style=&quot;color: rgb(50, 50, 50); font-size: 16px; background-color: rgba(255, 255, 255, 0.01);&quot;&gt;option&lt;/span&gt;" style="rounded=0;whiteSpace=wrap;html=1;fontSize=16;" parent="1" vertex="1">
          <mxGeometry x="120" y="554.5" width="158" height="71" as="geometry" />
        </mxCell>
        <mxCell id="TtaqyDXrP9r9ZkSE2HPn-21" style="edgeStyle=orthogonalEdgeStyle;rounded=0;orthogonalLoop=1;jettySize=auto;html=1;fontSize=16;" parent="1" source="TtaqyDXrP9r9ZkSE2HPn-9" target="TtaqyDXrP9r9ZkSE2HPn-11" edge="1">
          <mxGeometry relative="1" as="geometry" />
        </mxCell>
        <mxCell id="TtaqyDXrP9r9ZkSE2HPn-22" style="edgeStyle=orthogonalEdgeStyle;rounded=0;orthogonalLoop=1;jettySize=auto;html=1;fontSize=16;" parent="1" source="TtaqyDXrP9r9ZkSE2HPn-9" target="TtaqyDXrP9r9ZkSE2HPn-10" edge="1">
          <mxGeometry relative="1" as="geometry">
            <Array as="points">
              <mxPoint x="180" y="770" />
              <mxPoint x="580" y="770" />
            </Array>
          </mxGeometry>
        </mxCell>
        <mxCell id="TtaqyDXrP9r9ZkSE2HPn-9" value="&lt;span style=&quot;color: rgb(50, 50, 50); font-size: 16px; background-color: rgba(255, 255, 255, 0.01);&quot;&gt;childHandler&lt;/span&gt;" style="rounded=0;whiteSpace=wrap;html=1;fontSize=16;" parent="1" vertex="1">
          <mxGeometry x="120" y="670" width="158" height="71" as="geometry" />
        </mxCell>
        <mxCell id="TtaqyDXrP9r9ZkSE2HPn-23" style="edgeStyle=orthogonalEdgeStyle;rounded=0;orthogonalLoop=1;jettySize=auto;html=1;fontSize=16;entryX=0.5;entryY=0;entryDx=0;entryDy=0;" parent="1" source="TtaqyDXrP9r9ZkSE2HPn-10" target="TtaqyDXrP9r9ZkSE2HPn-14" edge="1">
          <mxGeometry relative="1" as="geometry">
            <mxPoint x="580" y="920" as="targetPoint" />
          </mxGeometry>
        </mxCell>
        <mxCell id="TtaqyDXrP9r9ZkSE2HPn-10" value="&lt;span style=&quot;color: rgb(50 , 50 , 50) ; font-size: 18px ; background-color: rgba(255 , 255 , 255 , 0.01)&quot;&gt;bind（ip,port）&lt;/span&gt;&lt;div style=&quot;resize: none ; outline: 0px ; font-size: 18px ; color: rgb(50 , 50 , 50)&quot;&gt;绑定&lt;/div&gt;" style="rounded=0;whiteSpace=wrap;html=1;fontSize=16;" parent="1" vertex="1">
          <mxGeometry x="520" y="810" width="159" height="71" as="geometry" />
        </mxCell>
        <mxCell id="TtaqyDXrP9r9ZkSE2HPn-30" style="edgeStyle=orthogonalEdgeStyle;rounded=0;orthogonalLoop=1;jettySize=auto;html=1;entryX=0.5;entryY=1;entryDx=0;entryDy=0;fontSize=16;" parent="1" source="TtaqyDXrP9r9ZkSE2HPn-11" target="TtaqyDXrP9r9ZkSE2HPn-4" edge="1">
          <mxGeometry relative="1" as="geometry" />
        </mxCell>
        <mxCell id="TtaqyDXrP9r9ZkSE2HPn-11" value="&lt;span style=&quot;color: rgb(50 , 50 , 50) ; font-size: 18px ; background-color: rgba(255 , 255 , 255 , 0.01)&quot;&gt;定义ChannelHandler&lt;/span&gt;" style="rounded=0;whiteSpace=wrap;html=1;fontSize=16;" parent="1" vertex="1">
          <mxGeometry x="520" y="670" width="159" height="71" as="geometry" />
        </mxCell>
        <mxCell id="TtaqyDXrP9r9ZkSE2HPn-12" value="&lt;span style=&quot;color: rgb(50 , 50 , 50) ; font-size: 18px ; background-color: rgba(255 , 255 , 255 , 0.01)&quot;&gt;定义options 类型&lt;/span&gt;" style="rounded=0;whiteSpace=wrap;html=1;fontSize=16;" parent="1" vertex="1">
          <mxGeometry x="526" y="554.5" width="159" height="71" as="geometry" />
        </mxCell>
        <mxCell id="TtaqyDXrP9r9ZkSE2HPn-42" style="edgeStyle=orthogonalEdgeStyle;rounded=0;orthogonalLoop=1;jettySize=auto;html=1;entryX=0;entryY=0.5;entryDx=0;entryDy=0;fontSize=16;" parent="1" source="TtaqyDXrP9r9ZkSE2HPn-13" target="TtaqyDXrP9r9ZkSE2HPn-41" edge="1">
          <mxGeometry relative="1" as="geometry" />
        </mxCell>
        <mxCell id="TtaqyDXrP9r9ZkSE2HPn-13" value="&lt;span style=&quot;color: rgb(50, 50, 50); font-size: 16px; background-color: rgba(255, 255, 255, 0.01);&quot;&gt;ReflectiveChannelFactory&lt;/span&gt;&lt;div style=&quot;resize: none; outline: 0px; font-size: 16px; color: rgb(50, 50, 50);&quot;&gt;定义创建什么样的channel&lt;/div&gt;" style="rounded=0;whiteSpace=wrap;html=1;fontSize=16;" parent="1" vertex="1">
          <mxGeometry x="520" y="420" width="159" height="71" as="geometry" />
        </mxCell>
        <mxCell id="TtaqyDXrP9r9ZkSE2HPn-32" value="" style="edgeStyle=orthogonalEdgeStyle;rounded=0;orthogonalLoop=1;jettySize=auto;html=1;fontSize=16;" parent="1" source="TtaqyDXrP9r9ZkSE2HPn-14" target="TtaqyDXrP9r9ZkSE2HPn-31" edge="1">
          <mxGeometry relative="1" as="geometry" />
        </mxCell>
        <mxCell id="TtaqyDXrP9r9ZkSE2HPn-43" style="edgeStyle=orthogonalEdgeStyle;rounded=0;orthogonalLoop=1;jettySize=auto;html=1;entryX=0.5;entryY=1;entryDx=0;entryDy=0;fontSize=16;" parent="1" source="TtaqyDXrP9r9ZkSE2HPn-14" target="TtaqyDXrP9r9ZkSE2HPn-41" edge="1">
          <mxGeometry relative="1" as="geometry" />
        </mxCell>
        <mxCell id="TtaqyDXrP9r9ZkSE2HPn-14" value="&lt;span style=&quot;color: rgb(50 , 50 , 50) ; font-size: 18px ; background-color: rgba(255 , 255 , 255 , 0.01)&quot;&gt;initAndRegister()&lt;/span&gt;" style="rounded=0;whiteSpace=wrap;html=1;fontSize=16;" parent="1" vertex="1">
          <mxGeometry x="520" y="980" width="159" height="71" as="geometry" />
        </mxCell>
        <mxCell id="TtaqyDXrP9r9ZkSE2HPn-31" value="&lt;span style=&quot;color: rgb(50 , 50 , 50) ; font-size: 18px ; background-color: rgba(255 , 255 , 255 , 0.01)&quot;&gt;init()&lt;/span&gt;&lt;div style=&quot;resize: none ; outline: 0px ; font-size: 18px ; color: rgb(50 , 50 , 50)&quot;&gt;将开始创建出来的option设置到channelConfig中&lt;/div&gt;" style="rounded=0;whiteSpace=wrap;html=1;fontSize=16;" parent="1" vertex="1">
          <mxGeometry x="98.5" y="965.5" width="201" height="100" as="geometry" />
        </mxCell>
        <mxCell id="TtaqyDXrP9r9ZkSE2HPn-24" value="调用父类的方法去绑定" style="text;html=1;align=center;verticalAlign=middle;resizable=0;points=[];autosize=1;fontSize=16;" parent="1" vertex="1">
          <mxGeometry x="505" y="911" width="180" height="20" as="geometry" />
        </mxCell>
        <mxCell id="TtaqyDXrP9r9ZkSE2HPn-33" value="&lt;span style=&quot;color: rgb(50 , 50 , 50) ; font-size: 18px ; background-color: rgba(255 , 255 , 255 , 0.01)&quot;&gt;ChannelInitializer 将此init 类添加到最后的head 和tail 的中间&lt;/span&gt;&lt;br style=&quot;color: rgb(50 , 50 , 50) ; font-size: 18px&quot;&gt;&lt;div style=&quot;resize: none ; outline: 0px ; font-size: 18px ; color: rgb(50 , 50 , 50)&quot;&gt;判断是否重复注册&lt;/div&gt;" style="rounded=0;whiteSpace=wrap;html=1;fontSize=16;" parent="1" vertex="1">
          <mxGeometry x="98.5" y="1110" width="201" height="100" as="geometry" />
        </mxCell>
        <mxCell id="TtaqyDXrP9r9ZkSE2HPn-35" style="edgeStyle=orthogonalEdgeStyle;rounded=0;orthogonalLoop=1;jettySize=auto;html=1;fontSize=16;entryX=0;entryY=0.5;entryDx=0;entryDy=0;" parent="1" source="TtaqyDXrP9r9ZkSE2HPn-34" target="TtaqyDXrP9r9ZkSE2HPn-36" edge="1">
          <mxGeometry relative="1" as="geometry">
            <mxPoint x="730" y="1330" as="targetPoint" />
          </mxGeometry>
        </mxCell>
        <mxCell id="TtaqyDXrP9r9ZkSE2HPn-34" value="&lt;span style=&quot;color: rgb(50 , 50 , 50) ; font-size: 18px ; background-color: rgba(255 , 255 , 255 , 0.01)&quot;&gt;将channel 注册到childEventLoop 中通过死循环检测handler中是否有注册新的执行器&lt;/span&gt;" style="rounded=0;whiteSpace=wrap;html=1;fontSize=16;" parent="1" vertex="1">
          <mxGeometry x="99" y="1270" width="201" height="100" as="geometry" />
        </mxCell>
        <mxCell id="TtaqyDXrP9r9ZkSE2HPn-38" style="edgeStyle=orthogonalEdgeStyle;rounded=0;orthogonalLoop=1;jettySize=auto;html=1;entryX=0.5;entryY=1;entryDx=0;entryDy=0;fontSize=16;" parent="1" source="TtaqyDXrP9r9ZkSE2HPn-36" target="TtaqyDXrP9r9ZkSE2HPn-37" edge="1">
          <mxGeometry relative="1" as="geometry" />
        </mxCell>
        <mxCell id="TtaqyDXrP9r9ZkSE2HPn-36" value="&lt;span style=&quot;color: rgb(50 , 50 , 50) ; font-size: 18px ; background-color: rgba(255 , 255 , 255 , 0.01)&quot;&gt;sync()&lt;/span&gt;" style="rounded=0;whiteSpace=wrap;html=1;fontSize=16;" parent="1" vertex="1">
          <mxGeometry x="800" y="1280" width="190" height="80" as="geometry" />
        </mxCell>
        <mxCell id="TtaqyDXrP9r9ZkSE2HPn-37" value="&lt;span style=&quot;color: rgb(50 , 50 , 50) ; font-size: 18px ; background-color: rgba(255 , 255 , 255 , 0.01)&quot;&gt;DefaultChannelPromise&lt;/span&gt;" style="rounded=0;whiteSpace=wrap;html=1;fontSize=16;" parent="1" vertex="1">
          <mxGeometry x="815.5" y="170" width="159" height="71" as="geometry" />
        </mxCell>
        <mxCell id="TtaqyDXrP9r9ZkSE2HPn-75" style="edgeStyle=orthogonalEdgeStyle;rounded=0;orthogonalLoop=1;jettySize=auto;html=1;entryX=0.5;entryY=1;entryDx=0;entryDy=0;fontSize=19;" parent="1" source="TtaqyDXrP9r9ZkSE2HPn-40" target="TtaqyDXrP9r9ZkSE2HPn-73" edge="1">
          <mxGeometry relative="1" as="geometry" />
        </mxCell>
        <mxCell id="TtaqyDXrP9r9ZkSE2HPn-40" value="&lt;span style=&quot;color: rgb(50, 50, 50); font-size: 16px; background-color: rgba(255, 255, 255, 0.01);&quot;&gt;EventLoopGroup (Parent)&lt;/span&gt;" style="rounded=0;whiteSpace=wrap;html=1;fontSize=16;" parent="1" vertex="1">
          <mxGeometry x="505" y="20" width="158" height="71" as="geometry" />
        </mxCell>
        <mxCell id="TtaqyDXrP9r9ZkSE2HPn-47" value="" style="edgeStyle=orthogonalEdgeStyle;rounded=0;orthogonalLoop=1;jettySize=auto;html=1;fontSize=19;entryX=0;entryY=0.5;entryDx=0;entryDy=0;" parent="1" source="TtaqyDXrP9r9ZkSE2HPn-41" target="TtaqyDXrP9r9ZkSE2HPn-48" edge="1">
          <mxGeometry relative="1" as="geometry">
            <mxPoint x="1329.9999999999995" y="455.4999999999998" as="targetPoint" />
          </mxGeometry>
        </mxCell>
        <mxCell id="TtaqyDXrP9r9ZkSE2HPn-41" value="&lt;span style=&quot;color: rgb(50 , 50 , 50) ; background-color: rgba(255 , 255 , 255 , 0.01)&quot;&gt;channelFactory&lt;/span&gt;" style="ellipse;whiteSpace=wrap;html=1;fontSize=16;" parent="1" vertex="1">
          <mxGeometry x="1070" y="403.25" width="180" height="104.5" as="geometry" />
        </mxCell>
        <mxCell id="TtaqyDXrP9r9ZkSE2HPn-45" value="&lt;font color=&quot;#ff3333&quot; style=&quot;font-size: 19px;&quot;&gt;调用传进来的channel去创建对应的channel类&lt;/font&gt;" style="text;html=1;align=center;verticalAlign=middle;resizable=0;points=[];autosize=1;fontSize=19;" parent="1" vertex="1">
          <mxGeometry x="810" y="975" width="400" height="30" as="geometry" />
        </mxCell>
        <mxCell id="TtaqyDXrP9r9ZkSE2HPn-53" style="edgeStyle=orthogonalEdgeStyle;rounded=0;orthogonalLoop=1;jettySize=auto;html=1;fontSize=19;" parent="1" source="TtaqyDXrP9r9ZkSE2HPn-48" target="TtaqyDXrP9r9ZkSE2HPn-50" edge="1">
          <mxGeometry relative="1" as="geometry" />
        </mxCell>
        <mxCell id="TtaqyDXrP9r9ZkSE2HPn-48" value="&lt;span style=&quot;color: rgb(50 , 50 , 50) ; font-size: 17px ; background-color: rgba(255 , 255 , 255 , 0.01)&quot;&gt;NioServerSocketChannel&lt;/span&gt;" style="rounded=0;whiteSpace=wrap;html=1;fontSize=16;" parent="1" vertex="1">
          <mxGeometry x="1490" y="420" width="220" height="70" as="geometry" />
        </mxCell>
        <mxCell id="TtaqyDXrP9r9ZkSE2HPn-49" value="&lt;span style=&quot;color: rgb(50 , 50 , 50) ; font-size: 17px ; background-color: rgba(255 , 255 , 255 , 0.01)&quot;&gt;使用的是jdk自带的创建方式&lt;/span&gt;&lt;div style=&quot;resize: none ; outline: 0px ; font-size: 17px ; color: rgb(50 , 50 , 50)&quot;&gt;SelectorProvider--&amp;gt;openServerSocketChannel&lt;/div&gt;" style="rounded=0;whiteSpace=wrap;html=1;fontSize=16;" parent="1" vertex="1">
          <mxGeometry x="1490" y="549" width="220" height="70" as="geometry" />
        </mxCell>
        <mxCell id="TtaqyDXrP9r9ZkSE2HPn-50" value="&lt;span style=&quot;color: rgb(50 , 50 , 50) ; font-size: 17px ; background-color: rgba(255 , 255 , 255 , 0.01)&quot;&gt;创建出ChannelConfig&lt;br&gt;持有当前自己channel&lt;br&gt;&lt;/span&gt;" style="rounded=0;whiteSpace=wrap;html=1;fontSize=16;" parent="1" vertex="1">
          <mxGeometry x="1490" y="940" width="220" height="70" as="geometry" />
        </mxCell>
        <mxCell id="TtaqyDXrP9r9ZkSE2HPn-51" value="&lt;span style=&quot;color: rgb(50 , 50 , 50) ; font-size: 17px ; background-color: rgba(255 , 255 , 255 , 0.01)&quot;&gt;将channel 设置为非Bolck的 同时记录interestOp&lt;/span&gt;" style="rounded=0;whiteSpace=wrap;html=1;fontSize=16;" parent="1" vertex="1">
          <mxGeometry x="1490" y="810" width="220" height="70" as="geometry" />
        </mxCell>
        <mxCell id="TtaqyDXrP9r9ZkSE2HPn-54" style="edgeStyle=orthogonalEdgeStyle;rounded=0;orthogonalLoop=1;jettySize=auto;html=1;fontSize=19;entryX=0;entryY=0.5;entryDx=0;entryDy=0;" parent="1" source="TtaqyDXrP9r9ZkSE2HPn-52" target="TtaqyDXrP9r9ZkSE2HPn-55" edge="1">
          <mxGeometry relative="1" as="geometry">
            <mxPoint x="2030" y="715" as="targetPoint" />
          </mxGeometry>
        </mxCell>
        <mxCell id="TtaqyDXrP9r9ZkSE2HPn-52" value="&lt;span style=&quot;color: rgb(50 , 50 , 50) ; font-size: 17px ; background-color: rgba(255 , 255 , 255 , 0.01)&quot;&gt;定义为OP_ACCEPT接受的socket&lt;/span&gt;&lt;div style=&quot;resize: none ; outline: 0px ; font-size: 17px ; color: rgb(50 , 50 , 50)&quot;&gt;parent为null&lt;/div&gt;" style="rounded=0;whiteSpace=wrap;html=1;fontSize=16;" parent="1" vertex="1">
          <mxGeometry x="1490" y="680" width="220" height="70" as="geometry" />
        </mxCell>
        <mxCell id="TtaqyDXrP9r9ZkSE2HPn-57" value="" style="edgeStyle=orthogonalEdgeStyle;rounded=0;orthogonalLoop=1;jettySize=auto;html=1;fontSize=19;" parent="1" source="TtaqyDXrP9r9ZkSE2HPn-55" target="TtaqyDXrP9r9ZkSE2HPn-56" edge="1">
          <mxGeometry relative="1" as="geometry" />
        </mxCell>
        <mxCell id="TtaqyDXrP9r9ZkSE2HPn-55" value="&lt;span style=&quot;color: rgb(50 , 50 , 50) ; font-size: 17px ; background-color: rgba(255 , 255 , 255 , 0.01)&quot;&gt;创建当前channel的pipeline&lt;/span&gt;" style="rounded=0;whiteSpace=wrap;html=1;fontSize=16;" parent="1" vertex="1">
          <mxGeometry x="2020" y="680" width="290" height="70" as="geometry" />
        </mxCell>
        <mxCell id="TtaqyDXrP9r9ZkSE2HPn-60" value="" style="edgeStyle=orthogonalEdgeStyle;rounded=0;orthogonalLoop=1;jettySize=auto;html=1;fontSize=19;" parent="1" source="TtaqyDXrP9r9ZkSE2HPn-56" target="TtaqyDXrP9r9ZkSE2HPn-59" edge="1">
          <mxGeometry relative="1" as="geometry">
            <Array as="points">
              <mxPoint x="2165" y="890" />
              <mxPoint x="1855" y="890" />
            </Array>
          </mxGeometry>
        </mxCell>
        <mxCell id="TtaqyDXrP9r9ZkSE2HPn-62" style="edgeStyle=orthogonalEdgeStyle;rounded=0;orthogonalLoop=1;jettySize=auto;html=1;fontSize=19;" parent="1" source="TtaqyDXrP9r9ZkSE2HPn-56" target="TtaqyDXrP9r9ZkSE2HPn-61" edge="1">
          <mxGeometry relative="1" as="geometry">
            <Array as="points">
              <mxPoint x="2165" y="890" />
              <mxPoint x="2080" y="890" />
            </Array>
          </mxGeometry>
        </mxCell>
        <mxCell id="TtaqyDXrP9r9ZkSE2HPn-67" style="edgeStyle=orthogonalEdgeStyle;rounded=0;orthogonalLoop=1;jettySize=auto;html=1;entryX=0.655;entryY=0.042;entryDx=0;entryDy=0;entryPerimeter=0;fontSize=19;" parent="1" source="TtaqyDXrP9r9ZkSE2HPn-56" target="TtaqyDXrP9r9ZkSE2HPn-66" edge="1">
          <mxGeometry relative="1" as="geometry">
            <Array as="points">
              <mxPoint x="2165" y="890" />
              <mxPoint x="2400" y="890" />
            </Array>
          </mxGeometry>
        </mxCell>
        <mxCell id="TtaqyDXrP9r9ZkSE2HPn-56" value="&lt;span style=&quot;color: rgb(50 , 50 , 50) ; font-size: 17px ; background-color: rgba(255 , 255 , 255 , 0.01)&quot;&gt;DefaultChannelPipeline 传入当前的&lt;/span&gt;&lt;div style=&quot;resize: none ; outline: 0px ; font-size: 17px ; color: rgb(50 , 50 , 50)&quot;&gt;NioServerSocketChannel&lt;/div&gt;" style="rounded=0;whiteSpace=wrap;html=1;fontSize=16;" parent="1" vertex="1">
          <mxGeometry x="2020" y="810" width="290" height="60" as="geometry" />
        </mxCell>
        <mxCell id="TtaqyDXrP9r9ZkSE2HPn-64" style="edgeStyle=orthogonalEdgeStyle;rounded=0;orthogonalLoop=1;jettySize=auto;html=1;fontSize=19;entryX=0.551;entryY=1.041;entryDx=0;entryDy=0;entryPerimeter=0;" parent="1" source="TtaqyDXrP9r9ZkSE2HPn-59" target="TtaqyDXrP9r9ZkSE2HPn-61" edge="1">
          <mxGeometry relative="1" as="geometry">
            <mxPoint x="1850" y="1050" as="targetPoint" />
            <Array as="points">
              <mxPoint x="1850" y="1050" />
              <mxPoint x="2088" y="1050" />
            </Array>
          </mxGeometry>
        </mxCell>
        <mxCell id="TtaqyDXrP9r9ZkSE2HPn-59" value="&lt;span style=&quot;color: rgb(50 , 50 , 50) ; font-size: 17px ; background-color: rgba(255 , 255 , 255 , 0.01)&quot;&gt;tail 节点&lt;/span&gt;" style="rounded=0;whiteSpace=wrap;html=1;fontSize=16;" parent="1" vertex="1">
          <mxGeometry x="1770" y="947.5" width="160" height="55" as="geometry" />
        </mxCell>
        <mxCell id="TtaqyDXrP9r9ZkSE2HPn-63" style="edgeStyle=orthogonalEdgeStyle;rounded=0;orthogonalLoop=1;jettySize=auto;html=1;entryX=1;entryY=0.5;entryDx=0;entryDy=0;fontSize=19;" parent="1" source="TtaqyDXrP9r9ZkSE2HPn-61" target="TtaqyDXrP9r9ZkSE2HPn-59" edge="1">
          <mxGeometry relative="1" as="geometry" />
        </mxCell>
        <mxCell id="TtaqyDXrP9r9ZkSE2HPn-61" value="&lt;span style=&quot;color: rgb(50 , 50 , 50) ; font-size: 17px ; background-color: rgba(255 , 255 , 255 , 0.01)&quot;&gt;tail 节点&lt;/span&gt;" style="rounded=0;whiteSpace=wrap;html=1;fontSize=16;" parent="1" vertex="1">
          <mxGeometry x="2000" y="947.5" width="160" height="55" as="geometry" />
        </mxCell>
        <mxCell id="TtaqyDXrP9r9ZkSE2HPn-65" value="双向链表" style="text;html=1;align=center;verticalAlign=middle;resizable=0;points=[];autosize=1;fontSize=19;" parent="1" vertex="1">
          <mxGeometry x="1917" y="1037" width="90" height="30" as="geometry" />
        </mxCell>
        <mxCell id="TtaqyDXrP9r9ZkSE2HPn-66" value="&lt;span style=&quot;color: rgb(50 , 50 , 50) ; font-size: 17px ; background-color: rgba(255 , 255 , 255 , 0.01)&quot;&gt;创建对应的成功future 和promise 根据 传进来的channel&lt;/span&gt;" style="rounded=0;whiteSpace=wrap;html=1;fontSize=16;" parent="1" vertex="1">
          <mxGeometry x="2210" y="947.5" width="290" height="60" as="geometry" />
        </mxCell>
        <mxCell id="TtaqyDXrP9r9ZkSE2HPn-69" style="edgeStyle=orthogonalEdgeStyle;rounded=0;orthogonalLoop=1;jettySize=auto;html=1;entryX=0;entryY=0.5;entryDx=0;entryDy=0;fontSize=19;" parent="1" source="TtaqyDXrP9r9ZkSE2HPn-68" target="TtaqyDXrP9r9ZkSE2HPn-31" edge="1">
          <mxGeometry relative="1" as="geometry" />
        </mxCell>
        <mxCell id="TtaqyDXrP9r9ZkSE2HPn-68" value="&lt;span style=&quot;color: rgb(50 , 50 , 50) ; font-size: 18px ; background-color: rgba(255 , 255 , 255 , 0.01)&quot;&gt;将ServerBootstrap中配置的Option 和attr放到ChannelConfig中&lt;/span&gt;" style="rounded=0;whiteSpace=wrap;html=1;fontSize=19;" parent="1" vertex="1">
          <mxGeometry x="-260" y="953" width="230" height="125" as="geometry" />
        </mxCell>
        <mxCell id="TtaqyDXrP9r9ZkSE2HPn-73" value="&lt;span style=&quot;color: rgb(50 , 50 , 50) ; font-size: 13px ; background-color: rgba(255 , 255 , 255 , 0.01)&quot;&gt;实际执行任务的executor 线程管理器&lt;/span&gt;" style="rounded=0;whiteSpace=wrap;html=1;fontSize=19;" parent="1" vertex="1">
          <mxGeometry x="210" y="-200" width="370" height="80" as="geometry" />
        </mxCell>
        <mxCell id="6w5kW8aePezKGZnNkr1f-3" style="edgeStyle=orthogonalEdgeStyle;rounded=0;orthogonalLoop=1;jettySize=auto;html=1;entryX=0.5;entryY=0;entryDx=0;entryDy=0;" parent="1" source="6w5kW8aePezKGZnNkr1f-1" target="6w5kW8aePezKGZnNkr1f-2" edge="1">
          <mxGeometry relative="1" as="geometry">
            <Array as="points">
              <mxPoint x="540.5" y="-955" />
            </Array>
          </mxGeometry>
        </mxCell>
        <mxCell id="6w5kW8aePezKGZnNkr1f-1" value="&lt;pre style=&quot;background-color: rgb(255 , 255 , 255) ; font-family: &amp;#34;consolas&amp;#34; ; font-size: 12pt&quot;&gt;ScheduledExecutorService&lt;/pre&gt;&lt;pre style=&quot;background-color: rgb(255 , 255 , 255) ; font-family: &amp;#34;consolas&amp;#34; ; font-size: 12pt&quot;&gt;JDK&lt;/pre&gt;" style="rounded=0;whiteSpace=wrap;html=1;" parent="1" vertex="1">
          <mxGeometry x="360.5" y="-1140" width="340" height="80" as="geometry" />
        </mxCell>
        <mxCell id="6w5kW8aePezKGZnNkr1f-6" style="edgeStyle=orthogonalEdgeStyle;rounded=0;orthogonalLoop=1;jettySize=auto;html=1;entryX=0;entryY=0.533;entryDx=0;entryDy=0;entryPerimeter=0;" parent="1" source="6w5kW8aePezKGZnNkr1f-2" target="6w5kW8aePezKGZnNkr1f-4" edge="1">
          <mxGeometry relative="1" as="geometry">
            <Array as="points">
              <mxPoint x="1230.5" y="-920" />
            </Array>
          </mxGeometry>
        </mxCell>
        <mxCell id="6w5kW8aePezKGZnNkr1f-22" style="edgeStyle=orthogonalEdgeStyle;rounded=0;orthogonalLoop=1;jettySize=auto;html=1;entryX=0.54;entryY=-0.052;entryDx=0;entryDy=0;entryPerimeter=0;" parent="1" source="6w5kW8aePezKGZnNkr1f-2" target="6w5kW8aePezKGZnNkr1f-19" edge="1">
          <mxGeometry relative="1" as="geometry">
            <Array as="points">
              <mxPoint x="541" y="-860" />
              <mxPoint x="150" y="-860" />
              <mxPoint x="150" y="-810" />
              <mxPoint x="154" y="-810" />
            </Array>
          </mxGeometry>
        </mxCell>
        <mxCell id="6w5kW8aePezKGZnNkr1f-26" style="edgeStyle=orthogonalEdgeStyle;rounded=0;orthogonalLoop=1;jettySize=auto;html=1;entryX=0.5;entryY=0;entryDx=0;entryDy=0;" parent="1" source="6w5kW8aePezKGZnNkr1f-2" target="6w5kW8aePezKGZnNkr1f-25" edge="1">
          <mxGeometry relative="1" as="geometry">
            <mxPoint x="541" y="-830" as="targetPoint" />
          </mxGeometry>
        </mxCell>
        <mxCell id="6w5kW8aePezKGZnNkr1f-34" style="edgeStyle=orthogonalEdgeStyle;rounded=0;orthogonalLoop=1;jettySize=auto;html=1;entryX=0.5;entryY=0;entryDx=0;entryDy=0;" parent="1" source="6w5kW8aePezKGZnNkr1f-2" target="6w5kW8aePezKGZnNkr1f-21" edge="1">
          <mxGeometry relative="1" as="geometry" />
        </mxCell>
        <mxCell id="6w5kW8aePezKGZnNkr1f-2" value="&lt;pre style=&quot;background-color: rgb(255 , 255 , 255) ; font-family: &amp;#34;consolas&amp;#34; ; font-size: 12pt&quot;&gt;&lt;pre style=&quot;font-family: &amp;#34;consolas&amp;#34; ; font-size: 12pt&quot;&gt;EventExecutorGroup&lt;/pre&gt;&lt;/pre&gt;" style="rounded=0;whiteSpace=wrap;html=1;" parent="1" vertex="1">
          <mxGeometry x="370.5" y="-955" width="340" height="80" as="geometry" />
        </mxCell>
        <mxCell id="6w5kW8aePezKGZnNkr1f-4" value="&lt;font style=&quot;font-size: 25px&quot;&gt;根绝Next()方法获取Executor 中的执行线程对象来执行线程操作&lt;/font&gt;" style="rounded=0;whiteSpace=wrap;html=1;align=left;" parent="1" vertex="1">
          <mxGeometry x="1230.5" y="-1000" width="350" height="150" as="geometry" />
        </mxCell>
        <mxCell id="6w5kW8aePezKGZnNkr1f-10" style="edgeStyle=orthogonalEdgeStyle;rounded=0;orthogonalLoop=1;jettySize=auto;html=1;" parent="1" source="6w5kW8aePezKGZnNkr1f-7" target="6w5kW8aePezKGZnNkr1f-9" edge="1">
          <mxGeometry relative="1" as="geometry" />
        </mxCell>
        <mxCell id="6w5kW8aePezKGZnNkr1f-12" style="edgeStyle=orthogonalEdgeStyle;rounded=0;orthogonalLoop=1;jettySize=auto;html=1;entryX=0.5;entryY=0;entryDx=0;entryDy=0;" parent="1" source="6w5kW8aePezKGZnNkr1f-7" target="6w5kW8aePezKGZnNkr1f-11" edge="1">
          <mxGeometry relative="1" as="geometry">
            <mxPoint x="1040" y="-463" as="targetPoint" />
            <Array as="points">
              <mxPoint x="540" y="-530" />
              <mxPoint x="140" y="-530" />
            </Array>
          </mxGeometry>
        </mxCell>
        <mxCell id="6w5kW8aePezKGZnNkr1f-7" value="&lt;pre style=&quot;background-color: rgb(255 , 255 , 255) ; font-family: &amp;#34;consolas&amp;#34; ; font-size: 12pt&quot;&gt;&lt;pre style=&quot;font-family: &amp;#34;consolas&amp;#34; ; font-size: 12pt&quot;&gt;&lt;pre style=&quot;font-family: &amp;#34;consolas&amp;#34; ; font-size: 12pt&quot;&gt;MultithreadEventExecutorGroup&lt;/pre&gt;&lt;/pre&gt;&lt;/pre&gt;" style="rounded=0;whiteSpace=wrap;html=1;" parent="1" vertex="1">
          <mxGeometry x="370.5" y="-624" width="340" height="80" as="geometry" />
        </mxCell>
        <mxCell id="6w5kW8aePezKGZnNkr1f-9" value="&lt;span style=&quot;font-size: 25px&quot;&gt;提供Executor的执行器数组&lt;br&gt;提供默认的Promise对象&lt;br&gt;提供线程的选择器choose对象&lt;br&gt;&lt;/span&gt;" style="rounded=0;whiteSpace=wrap;html=1;align=left;" parent="1" vertex="1">
          <mxGeometry x="1241" y="-659" width="350" height="150" as="geometry" />
        </mxCell>
        <mxCell id="6w5kW8aePezKGZnNkr1f-31" style="edgeStyle=orthogonalEdgeStyle;rounded=0;orthogonalLoop=1;jettySize=auto;html=1;entryX=1;entryY=0.5;entryDx=0;entryDy=0;" parent="1" source="6w5kW8aePezKGZnNkr1f-11" target="6w5kW8aePezKGZnNkr1f-13" edge="1">
          <mxGeometry relative="1" as="geometry" />
        </mxCell>
        <mxCell id="6w5kW8aePezKGZnNkr1f-33" value="" style="edgeStyle=orthogonalEdgeStyle;rounded=0;orthogonalLoop=1;jettySize=auto;html=1;" parent="1" source="6w5kW8aePezKGZnNkr1f-11" target="6w5kW8aePezKGZnNkr1f-32" edge="1">
          <mxGeometry relative="1" as="geometry" />
        </mxCell>
        <mxCell id="6w5kW8aePezKGZnNkr1f-11" value="&lt;pre style=&quot;background-color: rgb(255 , 255 , 255) ; font-family: &amp;#34;consolas&amp;#34; ; font-size: 12pt&quot;&gt;&lt;pre style=&quot;font-family: &amp;#34;consolas&amp;#34; ; font-size: 12pt&quot;&gt;&lt;pre style=&quot;font-family: &amp;#34;consolas&amp;#34; ; font-size: 12pt&quot;&gt;&lt;pre style=&quot;font-family: &amp;#34;consolas&amp;#34; ; font-size: 12pt&quot;&gt;MultithreadEventLoopGroup&lt;/pre&gt;&lt;/pre&gt;&lt;/pre&gt;&lt;/pre&gt;" style="rounded=0;whiteSpace=wrap;html=1;" parent="1" vertex="1">
          <mxGeometry x="-30" y="-490" width="340" height="80" as="geometry" />
        </mxCell>
        <mxCell id="6w5kW8aePezKGZnNkr1f-32" value="&lt;pre style=&quot;background-color: rgb(255 , 255 , 255) ; font-family: &amp;#34;consolas&amp;#34; ; font-size: 12pt&quot;&gt;&lt;pre style=&quot;font-family: &amp;#34;consolas&amp;#34; ; font-size: 12pt&quot;&gt;&lt;pre style=&quot;font-family: &amp;#34;consolas&amp;#34; ; font-size: 12pt&quot;&gt;&lt;pre style=&quot;font-family: &amp;#34;consolas&amp;#34; ; font-size: 12pt&quot;&gt;EpollEventLoopGroup&lt;/pre&gt;&lt;pre style=&quot;font-family: &amp;#34;consolas&amp;#34; ; font-size: 12pt&quot;&gt;实现了具体工作执行器的newChild方法&lt;/pre&gt;&lt;/pre&gt;&lt;/pre&gt;&lt;/pre&gt;" style="rounded=0;whiteSpace=wrap;html=1;" parent="1" vertex="1">
          <mxGeometry x="-30" y="-360" width="340" height="80" as="geometry" />
        </mxCell>
        <mxCell id="6w5kW8aePezKGZnNkr1f-13" value="&lt;span style=&quot;font-size: 25px&quot;&gt;提供了线程池的默认个数的&lt;br&gt;实现了对线程&lt;/span&gt;&lt;span style=&quot;background-color: rgb(255 , 255 , 255) ; font-family: &amp;#34;consolas&amp;#34;&quot;&gt;&lt;font style=&quot;font-size: 25px&quot;&gt;EventLoopGroup&lt;br&gt;接口的注册&lt;br&gt;&lt;b&gt;&lt;font color=&quot;#ff3333&quot;&gt;个数的设定方式通过获取CPU盒数的2倍&lt;/font&gt;&lt;/b&gt;&lt;br&gt;&lt;/font&gt;&lt;/span&gt;" style="rounded=0;whiteSpace=wrap;html=1;align=left;" parent="1" vertex="1">
          <mxGeometry x="-470" y="-525" width="350" height="150" as="geometry" />
        </mxCell>
        <mxCell id="6w5kW8aePezKGZnNkr1f-15" value="&lt;p style=&quot;line-height: 0%&quot;&gt;&lt;/p&gt;&lt;span style=&quot;background-color: rgb(255 , 255 , 255) ; font-family: &amp;#34;consolas&amp;#34; ; font-size: 12pt&quot;&gt;LoopGroup&lt;/span&gt;&lt;br&gt;&lt;pre style=&quot;background-color: rgb(255 , 255 , 255) ; font-family: &amp;#34;consolas&amp;#34; ; font-size: 12pt&quot;&gt;具体的执行&lt;/pre&gt;&lt;p&gt;&lt;/p&gt;" style="rounded=0;whiteSpace=wrap;html=1;spacing=0;" parent="1" vertex="1">
          <mxGeometry x="-960" y="-1320" width="190" height="70" as="geometry" />
        </mxCell>
        <mxCell id="6w5kW8aePezKGZnNkr1f-16" value="&lt;pre style=&quot;background-color: rgb(255 , 255 , 255) ; font-family: &amp;#34;consolas&amp;#34; ; font-size: 12pt&quot;&gt;ExecutorGroup&lt;/pre&gt;&lt;pre style=&quot;background-color: rgb(255 , 255 , 255) ; font-family: &amp;#34;consolas&amp;#34; ; font-size: 12pt&quot;&gt;执行的管理器&lt;/pre&gt;" style="rounded=0;whiteSpace=wrap;html=1;" parent="1" vertex="1">
          <mxGeometry x="-670" y="-1320" width="190" height="70" as="geometry" />
        </mxCell>
        <mxCell id="6w5kW8aePezKGZnNkr1f-17" value="Executor" style="rounded=1;whiteSpace=wrap;html=1;" parent="1" vertex="1">
          <mxGeometry x="890.5" y="-1230" width="120" height="60" as="geometry" />
        </mxCell>
        <mxCell id="6w5kW8aePezKGZnNkr1f-30" style="edgeStyle=orthogonalEdgeStyle;rounded=0;orthogonalLoop=1;jettySize=auto;html=1;" parent="1" source="6w5kW8aePezKGZnNkr1f-19" target="6w5kW8aePezKGZnNkr1f-11" edge="1">
          <mxGeometry relative="1" as="geometry" />
        </mxCell>
        <mxCell id="6w5kW8aePezKGZnNkr1f-19" value="&lt;pre style=&quot;background-color: rgb(255 , 255 , 255) ; font-family: &amp;#34;consolas&amp;#34; ; font-size: 12pt&quot;&gt;&lt;pre style=&quot;font-family: &amp;#34;consolas&amp;#34; ; font-size: 12pt&quot;&gt;EventLoopGroup&lt;/pre&gt;&lt;pre style=&quot;font-family: &amp;#34;consolas&amp;#34; ; font-size: 12pt&quot;&gt;工作类&lt;/pre&gt;&lt;/pre&gt;" style="rounded=0;whiteSpace=wrap;html=1;" parent="1" vertex="1">
          <mxGeometry x="-30" y="-810" width="340" height="80" as="geometry" />
        </mxCell>
        <mxCell id="6w5kW8aePezKGZnNkr1f-21" value="&lt;pre style=&quot;background-color: rgb(255 , 255 , 255) ; font-family: &amp;#34;consolas&amp;#34; ; font-size: 12pt&quot;&gt;&lt;pre style=&quot;font-family: &amp;#34;consolas&amp;#34; ; font-size: 12pt&quot;&gt;EventExecutor&lt;/pre&gt;&lt;pre style=&quot;font-family: &amp;#34;consolas&amp;#34; ; font-size: 12pt&quot;&gt;执行器&lt;/pre&gt;&lt;/pre&gt;" style="rounded=0;whiteSpace=wrap;html=1;" parent="1" vertex="1">
          <mxGeometry x="-1040" y="-810" width="340" height="80" as="geometry" />
        </mxCell>
        <mxCell id="6w5kW8aePezKGZnNkr1f-29" style="edgeStyle=orthogonalEdgeStyle;rounded=0;orthogonalLoop=1;jettySize=auto;html=1;entryX=0.5;entryY=0;entryDx=0;entryDy=0;" parent="1" source="6w5kW8aePezKGZnNkr1f-25" target="6w5kW8aePezKGZnNkr1f-7" edge="1">
          <mxGeometry relative="1" as="geometry">
            <Array as="points">
              <mxPoint x="541" y="-660" />
              <mxPoint x="541" y="-660" />
            </Array>
          </mxGeometry>
        </mxCell>
        <mxCell id="6w5kW8aePezKGZnNkr1f-25" value="&lt;pre style=&quot;background-color: rgb(255 , 255 , 255) ; font-family: &amp;#34;consolas&amp;#34; ; font-size: 12pt&quot;&gt;&lt;pre style=&quot;font-family: &amp;#34;consolas&amp;#34; ; font-size: 12pt&quot;&gt;AbstractEventExecutorGroup&lt;/pre&gt;&lt;pre style=&quot;font-family: &amp;#34;consolas&amp;#34; ; font-size: 12pt&quot;&gt;定义基本的使用方式的实现&lt;/pre&gt;&lt;pre style=&quot;font-family: &amp;#34;consolas&amp;#34; ; font-size: 12pt&quot;&gt;都是从net方法中取工作类进行执行&lt;/pre&gt;&lt;/pre&gt;" style="rounded=0;whiteSpace=wrap;html=1;" parent="1" vertex="1">
          <mxGeometry x="370.5" y="-730" width="340" height="90" as="geometry" />
        </mxCell>
        <mxCell id="6w5kW8aePezKGZnNkr1f-36" style="edgeStyle=orthogonalEdgeStyle;rounded=0;orthogonalLoop=1;jettySize=auto;html=1;entryX=0;entryY=0.5;entryDx=0;entryDy=0;" parent="1" source="6w5kW8aePezKGZnNkr1f-35" target="6w5kW8aePezKGZnNkr1f-25" edge="1">
          <mxGeometry relative="1" as="geometry">
            <Array as="points">
              <mxPoint x="371" y="-680" />
            </Array>
          </mxGeometry>
        </mxCell>
        <mxCell id="6w5kW8aePezKGZnNkr1f-35" value="&lt;pre style=&quot;background-color: rgb(255 , 255 , 255) ; font-family: &amp;#34;consolas&amp;#34; ; font-size: 12pt&quot;&gt;&lt;pre style=&quot;font-family: &amp;#34;consolas&amp;#34; ; font-size: 12pt&quot;&gt;&lt;pre style=&quot;font-family: &amp;#34;consolas&amp;#34; ; font-size: 12pt&quot;&gt;AbstractEventExecutor&lt;/pre&gt;&lt;/pre&gt;&lt;pre style=&quot;font-family: &amp;#34;consolas&amp;#34; ; font-size: 12pt&quot;&gt;执行器&lt;/pre&gt;&lt;/pre&gt;" style="rounded=0;whiteSpace=wrap;html=1;" parent="1" vertex="1">
          <mxGeometry x="-1040" y="-720" width="340" height="80" as="geometry" />
        </mxCell>
        <mxCell id="6w5kW8aePezKGZnNkr1f-37" value="&lt;span style=&quot;font-size: 18px&quot;&gt;持有一个父类的执行器&lt;/span&gt;" style="text;html=1;align=center;verticalAlign=middle;resizable=0;points=[];autosize=1;" parent="1" vertex="1">
          <mxGeometry x="-412" y="-723" width="200" height="20" as="geometry" />
        </mxCell>
        <mxCell id="6w5kW8aePezKGZnNkr1f-39" style="edgeStyle=orthogonalEdgeStyle;rounded=0;orthogonalLoop=1;jettySize=auto;html=1;entryX=0;entryY=0.5;entryDx=0;entryDy=0;" parent="1" source="6w5kW8aePezKGZnNkr1f-38" target="6w5kW8aePezKGZnNkr1f-21" edge="1">
          <mxGeometry relative="1" as="geometry" />
        </mxCell>
        <mxCell id="6w5kW8aePezKGZnNkr1f-38" value="&lt;span style=&quot;background-color: rgb(255 , 255 , 255) ; font-family: &amp;#34;consolas&amp;#34;&quot;&gt;&lt;font style=&quot;font-size: 25px&quot;&gt;当前线程是否已经在当前执行器中&lt;br&gt;优雅关闭线程的方式&lt;br&gt;创建新的promise方法&lt;br&gt;&lt;/font&gt;&lt;/span&gt;" style="rounded=0;whiteSpace=wrap;html=1;align=left;" parent="1" vertex="1">
          <mxGeometry x="-1580" y="-845" width="350" height="150" as="geometry" />
        </mxCell>
        <mxCell id="gVq4MrgnVyCzjxpUbSnU-3" value="" style="edgeStyle=orthogonalEdgeStyle;rounded=0;orthogonalLoop=1;jettySize=auto;html=1;" edge="1" parent="1" source="gVq4MrgnVyCzjxpUbSnU-1" target="gVq4MrgnVyCzjxpUbSnU-2">
          <mxGeometry relative="1" as="geometry" />
        </mxCell>
        <mxCell id="gVq4MrgnVyCzjxpUbSnU-1" value="Future&lt;br&gt;" style="whiteSpace=wrap;html=1;" vertex="1" parent="1">
          <mxGeometry x="2870" y="-1240" width="120" height="60" as="geometry" />
        </mxCell>
        <mxCell id="gVq4MrgnVyCzjxpUbSnU-5" value="" style="edgeStyle=orthogonalEdgeStyle;rounded=0;orthogonalLoop=1;jettySize=auto;html=1;" edge="1" parent="1" source="gVq4MrgnVyCzjxpUbSnU-2" target="gVq4MrgnVyCzjxpUbSnU-4">
          <mxGeometry relative="1" as="geometry" />
        </mxCell>
        <mxCell id="gVq4MrgnVyCzjxpUbSnU-7" value="" style="edgeStyle=orthogonalEdgeStyle;rounded=0;orthogonalLoop=1;jettySize=auto;html=1;" edge="1" parent="1" source="gVq4MrgnVyCzjxpUbSnU-2" target="gVq4MrgnVyCzjxpUbSnU-6">
          <mxGeometry relative="1" as="geometry" />
        </mxCell>
        <mxCell id="gVq4MrgnVyCzjxpUbSnU-2" value="Future（netty）&lt;br&gt;增加Listener 和removeListener&lt;br&gt;返回Future" style="whiteSpace=wrap;html=1;" vertex="1" parent="1">
          <mxGeometry x="2775" y="-1110" width="310" height="60" as="geometry" />
        </mxCell>
        <mxCell id="gVq4MrgnVyCzjxpUbSnU-4" value="Promise&lt;br&gt;Listener 和removeListener&lt;br&gt;返回Promise" style="whiteSpace=wrap;html=1;" vertex="1" parent="1">
          <mxGeometry x="3240" y="-1110" width="310" height="60" as="geometry" />
        </mxCell>
        <mxCell id="gVq4MrgnVyCzjxpUbSnU-6" value="AbstractFuture&lt;br&gt;实现get 和get超时" style="whiteSpace=wrap;html=1;" vertex="1" parent="1">
          <mxGeometry x="2775" y="-970" width="310" height="60" as="geometry" />
        </mxCell>
        <mxCell id="gVq4MrgnVyCzjxpUbSnU-8" value="EventLoopExecutor" style="whiteSpace=wrap;html=1;" vertex="1" parent="1">
          <mxGeometry x="2481" y="-710" width="120" height="60" as="geometry" />
        </mxCell>
      </root>
    </mxGraphModel>
  </diagram>
</mxfile>
